<?xml version="1.0" encoding="utf-8"?>
<!-- Generator: Adobe Illustrator 16.0.0, SVG Export Plug-In . SVG Version: 6.00 Build 0)  -->
<!DOCTYPE svg PUBLIC "-//W3C//DTD SVG 1.1 Basic//EN" "http://www.w3.org/Graphics/SVG/1.1/DTD/svg11-basic.dtd">
<svg version="1.1" baseProfile="basic" id="Layer_1"
	 xmlns="http://www.w3.org/2000/svg" xmlns:xlink="http://www.w3.org/1999/xlink" x="0px" y="0px" width="3456px" height="3456px"
	 viewBox="0 0 3456 3456" xml:space="preserve">
<g id="Layer1" transform="matrix(1,0,0,1,-167.571,-19.2652)">
	<path fill="none" stroke="#231F20" stroke-width="22" stroke-miterlimit="10" d="M438.998,366.293
		c280.04-388.523,771.222-250.383,701.165,136.705c-20.521,151.479-7.461,297.228,44.324,420.418
		c120.204-52.213,221.271-63.176,312.385-41.414c79.879-19.131,107.543-269.54,157.232-267.498
		c139.453-26.157,191.674,83.229,171.541,145.636c-11.383,135.444-77.576,165.301-81.363,192.016
		c-3.521,16.781,71.451-20.325,71.451-20.325c33.47,5.009,55.373,17.584,68.025,36.213c-11.785,36.975,3.709,37.924,57.804,42.935
		c38.178,42.781-53.261,16.251-48.71,35.577c54.217,36.538,40.766,107.113,21.309,98.973c0,0,9.055,27.091-2.209,33.688
		c-11.262,6.601-55.438,6.995-55.438,6.995c-10.74,45.869-38.53,43.273-46.672,6.146c-14.576,9.097-33.457,7.427-48.246-3.172
		c-14.737,4.442-18.873,26.423-16.635,58.942c-119.193,159.68-229.011,219.157-401.837,221.203
		c-8.418,197.868-3.067,274.322-51.875,266.154c-158.325-29.229-274.148-167.564-244.864-198.005
		c29.279-30.438,115.896,5.942,146.926,1.394c26.834-12.503,2.255-62.753-4.15-60.867c-21.42,25.002-285.389,14.178-298.525,4.407
		c1.041,5.58-94.68,292.802-148.225,266.957c-123.936-28.496-225.729-162.259-198.113-193.705
		c27.617-31.44,160.933,47.886,168.538,41.503c5.925-4.969,66.524-132.135,64.343-141.856
		c-384.106-128.947-494.5-612.676-394.063-942.666C347.809,434.484,375.668,385.796,438.998,366.293z M807.907,1482.278
		c11.45-26.488,41.46-27.384,29.118,7.101c-18.091,65.356-43.407,125.753-72.783,183.359
		c-18.743,39.029-41.729,45.154-68.759,19.884c-40.67-23.006-69.062-49.64-90.613-78.298c-20.951-27.863,2.09-39.594,26.301-24.507
		l59.823,45.8c32.644,27.096,50.949,19.545,58.963-12.876L807.907,1482.278z M532.686,329.271
		c139.529-214.967,514.658-206.139,562.947,37.64c-11.489,194.553-19.228,322.353-1.397,411.56
		c22.844,114.309,41.647,211.073,52.074,234.754c10.426,23.682,33.919,27.871,33.124-7.646c-0.496-10.629,0.156-21.415,3.068-32.521
		c78.83-74.927,270.868-88.731,289.686-38.953c-17.422,53.165-122.991,52.358-150.494,24.296
		c-14.729-15.03-50.945,2.657-29.172,17.729c0,0,25.505,17.867,24.545,26.283c-0.96,8.422-43.284,21.996-63.329,45.896
		c-20.041,23.903,8.651,35.85,22.356,23.945c113.029-123.338,420.93-46.219,430.57,79.02c1.49,25.375,1.465,28.662-5.072,71.34
		c-54.344,121.387-220.127,227.505-362.646,195.35c-32.264-4.387-48.296,4.646-48.096,27.095
		c6.347,73.183,4.454,146.143,0.356,219.049c-12.738,27.161-31.27,31.796-55.332,14.934
		c-47.334-20.958-88.356-52.745-126.436-89.579c-12.66-28.668-6.631-38.702,21.949-26.258c21.301,14.83,43.254,25.966,65.732,34.143
		c23.967,13.958,39.149,7.648,46.338-17.107l-2.136-120.868c-1.34-24.726-18.056-31.829-46.641-25.34
		c-657.488,111.882-823.35-423.637-801.051-735.782c-1.413-23.104,8.214-40.492,36.699-39.229
		c187.854,6.797,366.151-19.144,544.104-42.781c37.946-5.038,30.521-49.624-7.923-44.02
		c-162.34,35.455-340.931,47.498-525.821,50.463c-21.097,2.888-29.833-4.374-24.995-22.79l1.939-49.076
		c-0.576-20.19,12.63-28.842,36.469-28.58l94.391-3.694c-27.951,60.004,13.463,76.555,77.046,79.219
		c45.728,2.378,78.882-8.916,95.302-38.406c-6.696-28.328-24.477-43.319-53-43.521c-26.922-0.19-29.828,21.513-10.295,28.044
		c12.702,10.769,8.19,14.547-0.338,16.692c-19.008,4.044-37.886,3.188-56.701,0c-20.367-4.577-24.3-18.539-14.288-40.47
		c21.884-25.971,51.79-48.059,84.841-68.62c22.253-14.734,17.568-31.308-5.684-26.412l-26.094,11.282
		c-15.176,7.855-24.718,4.677-18.785-14.631c-7.768-35.819-40.691-69.634-80.494-74.914
		C528.716,342.362,525.705,336.61,532.686,329.271z M1379.969,1356.936c3.016-22.11,52.09-10.313,49.524,3.037
		C1425.559,1380.463,1377.667,1373.875,1379.969,1356.936z M1337.434,1277.652c-0.084-25.193,54.932-9.877,50.685,3.037
		C1382.036,1299.178,1337.489,1294.751,1337.434,1277.652z M957.601,814.335c0.398-38.427,45.979-37.489,52.771,0.987
		c6.617,37.468-3.256,232.75-3.104,260.632c0.142,26.911,7.891,26.361,20.06,33.504c12.169,7.144,52.362,18.963,91.526,51.038
		c39.164,32.079,1.494,48.177-4.235,48.952s-56.675,0-74.385-0.688c-17.71-0.685-26.597-4.819-26.263,18.129
		c0.856,59.155-77.114,44.421-82.168,17.913c-68.075,37.959-118.106-28.378-82.015-71.243c36.093-42.866,46.129-43.77,46.718-64.128
		c0.588-20.36-4.039-92.431-0.357-117.082c3.688-24.648,2.404-50.115,0.93-77.245c-1.479-27.13-4.504-69.85-4.504-69.85
		c-9.682-61.875,23.941-66.612,37.739-25.349c13.797,41.265-6.163,139.558-6.438,154.759
		c-0.274,15.203,17.146,112.455,17.144,122.141c-0.004,9.688-5.211,29.152-17.564,43.613c-12.35,14.463-44.359,45.078-44.359,45.078
		c-13.061,35.458,20.904,56.223,38.635,13.536c8.13-22.702,18.632-26.446,32.437-3.786c0.837,1.019,2.085,1.763,2.458,2.948
		c9.727,30.874,42.309,18.278,23.598-13.682c-15.545-26.55,12.841-33.711,37.893-18.729c50.8,38.526,87.732,0.534,26.234-21.196
		c0,0-19.354-5.621-49.521-20.007c-30.167-14.385-26.473-93.562-23.163-55.6c1.578,18.125,0.787-38.381-1.966-103.139
		C962.685,894.964,957.206,852.767,957.601,814.335z M1374.757,1213.451c-0.086-17.1,38.368-10.334,35.903,3.037
		C1408.19,1229.855,1374.841,1230.546,1374.757,1213.451z M1507.447,949.673c85.155-100.552,133.674-194.957,165.538-286.571
		c8.176-25.697,25.433-35.01,55.969-20.379c58.963,29.579,69.055,67.567,59.348,108.964c-8.879,42.409-21.01,82.368-35.59,120.486
		c-24.434,28.9-50.535,54.232-78.436,75.698c-29.795,22.333-17.211,39.341,37.75,51.025c26.496-9.457,53.326-18.95,81.516-28.592
		c19.301-0.653,29.707,5.049,27.111,20.037l-2.742,33.157c-0.311,11.562-5.461,14.787-16.459,7.944
		c-18.416-0.533-28.863-7.453-35.285-17.606c-31.503,0.424-42.555,9.705-23.724,31.938c44.848,27.058,81.772,33.517,115.849,32.579
		c36.661,15.114,23.705,59.247,6.121,44.371c-22.329-6.816-28.107-1.049-17.337,17.303c1.674,16.746-69.927,11.616-82.503-3.575
		c-22.598,2.408-35.021-10.87-41.318-33.588c-53.664-85.612-129.016-105.347-206.508-118.583
		C1498.5,978.274,1497.182,966.085,1507.447,949.673z M1388.005,1133.191c-0.086-17.1,45.842-18.946,34.647,0.595
		C1409.458,1156.811,1388.085,1150.287,1388.005,1133.191z M1218.322,998.204c-0.085-17.096,51.989-10.329,49.524,3.037
		C1265.378,1014.612,1218.406,1015.303,1218.322,998.204z M1685.708,871.472c-0.089-15.502,11.665-14.108,17.764-14.039
		c6.103,0.068,20.232-1.981,18.832,14.453C1720.897,888.322,1685.8,886.97,1685.708,871.472z M1729.046,814.774
		c-1.057-22.659,32.726-19.03,31.715-3.133C1759.755,827.539,1730.105,837.438,1729.046,814.774z M742.995,471.517
		c88.34-166.372,273.018-114.444,284.363-29.318c5.304,70.939-44.029,112.488-155.527,120.592
		C810.537,564.28,743.38,512.198,742.995,471.517z M802.857,501.273c23.677-2.907,65.875-2.186,73.244-5.127
		c7.368-2.938,40.86-30.443,56.954-55.545c7.588-11.839,12.438-27.875,18.514-43.684c22.193,8.529,38.265,24.899,47.919,49.486
		c-1.321,34.71-19.646,66.862-126.989,85.603C845.458,537.772,821.949,528.763,802.857,501.273z M465.178,478.467
		c-6.739,5.44-7.153,9.577-1.255,12.414c19.869,12.36,39.495,10.05,59.037,2.827c111.252-36.23,68.57-87.771,19.438-103.876
		C539.863,436.239,523.155,471.47,465.178,478.467z"/>
</g>
</svg>
