<?xml version="1.0" standalone="no"?>
<!DOCTYPE svg PUBLIC "-//W3C//DTD SVG 1.1//EN" "http://www.w3.org/Graphics/SVG/1.1/DTD/svg11.dtd">
<svg width="100%" height="100%" viewBox="0 0 900 900" version="1.1" xmlns="http://www.w3.org/2000/svg" xmlns:xlink="http://www.w3.org/1999/xlink" xml:space="preserve" style="fill-rule:evenodd;clip-rule:evenodd;stroke-linejoin:round;stroke-miterlimit:1.41421;">
    <g id="Dog Sitting final" transform="matrix(0.53396,0,0,0.53396,-85.0451,-72.2412)">
        <g transform="matrix(1,0,0,1,-3.70988,-97.6318)">
            <path d="M471.935,841.01L467.114,715.374L734.645,711.191L726.441,851.663L471.935,841.01Z" style="fill:rgb(113,84,19);"/>
        </g>
        <g transform="matrix(1.3062,-0.287569,0.287569,1.3062,-264.314,539.299)">
            <path d="M529.111,259.229C556.48,253.835 610.435,264.265 630.37,270.944C650.304,277.623 664.134,280.837 678.217,285.078C691.329,289.027 766.265,284.64 781.397,280.718L756.776,294.274C792.199,297.015 836.554,253.586 860.965,255.873L850.414,270.186C861.103,264.085 870.745,260.493 878.315,261.863C882.171,270.975 878.683,284.535 873.668,299.02L888.492,275.541C891.078,300.884 885.081,323.906 867.714,350.96L888.917,328.749C883.993,341.104 875.729,356.765 851.025,373.136L875.364,361.359C850.768,389.492 819.527,392.249 796.199,389.567C802.747,391.257 819.279,393.353 827.635,393.249C794.631,403.919 751.681,402.836 719.676,393.975C723.53,396.753 730.34,401.417 738.833,403.778C705.193,406.117 692.46,393.518 679.108,385.616L687.251,399.577C664.292,392.525 657.111,371.973 649.105,362.122C641.099,352.27 624.741,346.299 612.972,339.081C601.203,331.864 571.575,312.297 555.107,307.58C538.639,302.863 556.423,309.552 531.841,302.44C507.258,295.328 501.742,264.622 529.111,259.229Z" style="fill:rgb(156,113,15);"/>
        </g>
        <g transform="matrix(1,0,0,1,-4.30632,-105.457)">
            <path d="M534.543,791.878C534.543,791.878 491.745,794.887 471.11,825.559C451.626,854.52 428.901,906.935 427.414,938.989C425.765,974.548 462.673,984.52 462.673,984.52C462.673,984.52 431.962,1009.5 435.134,1018.87C438.305,1028.24 448.847,1040.46 466.656,1041.8C484.465,1043.14 508.981,1030.87 508.981,1030.87L530.247,1007.17L600.507,991.935L661.632,1003.43L699.663,1036.57C699.663,1036.57 724.949,1042.14 738.12,1036.14C751.292,1030.14 753.284,1031.22 759.766,1017.74C766.248,1004.25 734.535,983.803 734.535,983.803C734.535,983.803 771.327,976.051 772.54,940.36C773.753,904.669 744.581,849.414 729.57,828.048C714.558,806.682 661.596,784.822 661.596,784.822L678.344,746.244L596.543,735.295L524.744,747.835L534.543,791.878Z" style="fill:rgb(164,118,13);"/>
        </g>
        <g id="Body (Curve)" transform="matrix(1,0,0,0.852652,0,69.5789)">
            <path d="M501.619,472.209C474.232,507.62 445.507,618.344 452.055,638.286C452.699,640.247 453.729,642.956 455.062,646.301C466.747,675.611 501.753,753.734 504.935,805.344C512.722,885.144 504.881,1036.77 502.483,1044.79C500.086,1052.81 467.388,1065.27 463.147,1069.31C458.907,1073.35 461.708,1099.26 470.975,1101.32C480.242,1103.38 539.968,1096.33 546.187,1082.24C552.407,1068.15 559.816,1002.56 557.405,968.013C554.995,933.462 567.293,831.075 567.293,831.075C570.562,832.518 573.664,835.981 576.659,840.728C575.126,832.346 572.631,825.075 568.537,819.653C571.391,817.946 574.563,818.403 578.149,821.667C575.918,813.344 572.439,806.72 567.823,801.64C571.619,800.048 575.234,801.114 578.734,803.872C575.731,791.45 571.419,781.963 566.088,774.761L564.878,765.339C589.513,778.025 613.921,774.266 638.245,764.377L637.53,772.499C630.653,776.512 625.627,783.375 621.442,791.532C625.847,789.825 630.205,789.429 634.527,790.046C629.041,795.303 624.977,801.865 622.405,809.793C626.415,807.011 630.167,806.814 633.634,809.456C626.742,815.152 621.394,822.032 617.356,829.917C621.221,827.594 625.317,826.143 630.53,828.896C630.53,828.896 641.356,913.041 641.438,940.55C641.52,968.06 632.227,974.759 637.678,988.815C643.668,1004.26 645.566,1048.56 644.035,1064.54C642.462,1080.96 689.662,1104.05 717.929,1101.24C746.196,1098.43 747.755,1074.38 739.721,1069.28C731.687,1064.18 702.234,1053.64 698.181,1043.25C694.129,1032.85 690.823,937.119 690.09,926.663C689.357,916.207 690.185,877.73 695.621,801.08C701.057,724.43 744.214,667.883 746.719,634.679C748.984,604.652 717.37,478.324 699.852,475.542L501.619,472.209Z" style="fill:rgb(144,105,16);"/>
        </g>
        <g transform="matrix(1,0,0,0.852652,0,69.5789)">
            <path d="M600.298,620.824C600.298,620.824 459.243,772.161 598.541,773.435C737.84,774.709 600.298,620.824 600.298,620.824Z" style="fill:rgb(203,175,112);"/>
        </g>
        <g id="Head" transform="matrix(1,0,0,1,-1.76556,72.5357)">
            <g id="Ear L">
                <path id="Ear" d="M581.391,221.168C581.391,221.168 569.001,167.301 560.275,152.283C551.55,137.265 535.07,114.651 522.85,102.075C510.629,89.5 493.729,97.714 488.192,108.444C482.655,119.174 482.937,139.069 475.143,153.443C466.582,169.231 470.825,196.337 476.877,199.198C482.928,202.059 487.539,237.56 486.974,244.074C486.41,250.588 479.785,269.17 483.463,276.905C487.141,284.64 505.806,300.225 505.806,300.225L581.391,221.168Z" style="fill:rgb(132,99,23);"/>
                <path id="Ear1" d="M563.219,205.887C564.87,192.841 559.752,168.362 551.026,153.344C542.301,138.327 530.03,122.442 517.81,109.866C505.589,97.29 500.289,106.843 494.751,117.574C489.214,128.304 490.912,142.163 483.117,156.536C474.556,172.325 476.052,190.341 482.743,190.147C501.252,189.612 523.908,232.138 510.69,242.102C505.469,246.037 509.623,252.689 513.301,260.424C516.979,268.159 535.53,239.313 535.53,239.313C535.53,239.313 561.568,218.933 563.219,205.887Z" style="fill:rgb(111,84,23);"/>
                <g id="Ear2" transform="matrix(0.644741,0,0,0.644741,187.596,61.1633)">
                    <path d="M528.864,250.274C525.794,237.488 532.997,220.852 532.481,200.665C532.037,183.302 534.451,170.007 519.161,161.423C485.279,142.4 475.371,144.506 479.558,166.229C483.427,186.299 487.271,191.82 493.005,195.273C505.185,202.608 514.745,230.997 514.054,240.961C513.601,247.484 513.349,256.228 517.027,263.963C520.705,271.697 523.716,290.804 523.716,290.804C523.716,290.804 537.699,287.063 528.864,250.274Z" style="fill:rgb(64,47,6);"/>
                </g>
            </g>
            <g id="Ear Rv" transform="matrix(-1,0,0,1,1200.37,-0.507726)">
                <path id="Ear3" d="M581.391,221.168C581.391,221.168 569.001,167.301 560.275,152.283C551.55,137.265 535.07,114.651 522.85,102.075C510.629,89.5 493.729,97.714 488.192,108.444C482.655,119.174 482.937,139.069 475.143,153.443C466.582,169.231 470.825,196.337 476.877,199.198C482.928,202.059 487.539,237.56 486.974,244.074C486.41,250.588 479.785,269.17 483.463,276.905C487.141,284.64 505.806,300.225 505.806,300.225L581.391,221.168Z" style="fill:rgb(132,99,23);"/>
                <path id="Ear4" d="M563.219,205.887C564.87,192.841 559.752,168.362 551.026,153.344C542.301,138.327 530.03,122.442 517.81,109.866C505.589,97.29 500.289,106.843 494.751,117.574C489.214,128.304 490.912,142.163 483.117,156.536C474.556,172.325 476.052,190.341 482.743,190.147C501.252,189.612 523.908,232.138 510.69,242.102C505.469,246.037 509.623,252.689 513.301,260.424C516.979,268.159 535.53,239.313 535.53,239.313C535.53,239.313 561.568,218.933 563.219,205.887Z" style="fill:rgb(111,84,23);"/>
                <g id="Ear5" transform="matrix(0.644741,0,0,0.644741,187.596,61.1633)">
                    <path d="M528.864,250.274C525.794,237.488 532.997,220.852 532.481,200.665C532.037,183.302 534.451,170.007 519.161,161.423C485.279,142.4 475.371,144.506 479.558,166.229C483.427,186.299 487.271,191.82 493.005,195.273C505.185,202.608 514.745,230.997 514.054,240.961C513.601,247.484 513.349,256.228 517.027,263.963C520.705,271.697 523.716,290.804 523.716,290.804C523.716,290.804 537.699,287.063 528.864,250.274Z" style="fill:rgb(64,47,6);"/>
                </g>
            </g>
            <path id="Head1" d="M566.954,199.626C580.043,200.677 580.034,209.834 598.2,210.632C616.365,211.43 612.431,202.226 633.185,200.05C653.939,197.874 690.03,260.894 706.992,286.499C723.954,312.104 707.731,315.886 716.863,329.962C729.384,349.263 724.059,346.767 725.49,352.349C732.287,378.858 719.564,390.598 705.708,402.053C688.346,433.673 677.654,447.603 665.718,458.879C655.401,468.625 643.204,473.623 622.373,478.8C610.793,482.992 609.611,477.187 599.852,477.101C590.093,477.016 594.198,481.038 577.168,480.649C560.138,480.26 541.61,460.243 541.61,460.243L498.949,410.022C498.949,410.022 475.99,391.866 472.111,379.72C468.233,367.573 472.724,357.839 471.66,351.01C470.595,344.181 483.009,335.117 484.506,321.646C486.002,308.175 484.383,299.591 492.34,285.313C500.297,271.034 553.866,198.575 566.954,199.626Z" style="fill:rgb(156,113,15);"/>
            <path id="Lower Mouth" d="M565.031,361.068C565.031,361.068 542.121,368.677 542.583,371.848C543.045,375.02 542.249,404.45 544.215,413.314C546.181,422.178 555.422,445.973 599.316,445.486C643.211,445 654.225,421.992 655.481,415.948C656.738,409.905 656.553,377.257 656.815,375.178C657.076,373.098 631.393,361.854 631.393,361.854L565.031,361.068Z" style="fill:rgb(86,77,46);"/>
            <path id="Tongue" d="M561.04,388.525C561.04,388.525 568.046,403.075 569.535,410.811C571.025,418.547 568.877,432.619 568.877,432.619C568.877,432.619 564.051,455.469 601.155,455.104C638.259,454.738 631.578,432.425 631.578,432.425C631.578,432.425 628.915,418.484 631.418,408.964C633.921,399.444 638.179,386.493 638.179,386.493L600.472,371.865L561.04,388.525Z" style="fill:rgb(175,127,131);"/>
            <path id="Back Nose" d="M599.284,377.779C688.259,440.887 663.512,304.5 599.515,306.711C533.819,308.981 514.063,440.987 599.284,377.779Z" style="fill:rgb(94,89,61);"/>
            <path d="M599.48,324.58C629.031,315.093 641.352,351.112 627.623,352.972C623.623,364.613 615.062,368.386 603.684,367.906L600.311,371.718L596.861,368.125C596.861,368.125 586.517,366.865 582.933,366.016C579.35,365.166 573.164,361.572 572.958,353.748C556.127,344.178 573.941,316.302 599.48,324.58Z" style="fill:rgb(64,47,6);"/>
            <g transform="matrix(1,0,0,1,-1.85869,-1.99341)">
                <ellipse cx="583.962" cy="337.128" rx="5.898" ry="6.054" style="fill:rgb(204,191,160);"/>
            </g>
            <g id="Eye R" transform="matrix(-0.794198,0,0,0.794198,735.023,201.345)">
                <g transform="matrix(1,0,0,1,0.305249,0.999206)">
                    <path d="M86.559,105.103C99.238,79.802 122.767,83.361 130.729,101.046L131.57,109.495C128.303,114.528 124.839,113.599 121.301,110.381C109.467,116.206 89.321,111.207 86.559,105.103Z" style="fill:rgb(83,58,2);"/>
                </g>
                <g transform="matrix(1,0,0,1,-3.2626,-2.56472)">
                    <path d="M101.598,102.298C101.559,99.952 108.975,92.563 114.298,92.445C119.621,92.326 127.806,100.326 128.032,102.174C128.257,104.021 121.669,111.923 114.736,111.916C107.804,111.908 101.637,104.643 101.598,102.298Z" style="fill:rgb(70,33,14);"/>
                </g>
                <g transform="matrix(1,0,0,1,-3.2626,-2.56472)">
                    <path d="M102.306,102.239C102.267,99.893 108.975,92.563 114.298,92.445C119.621,92.326 126.205,100.187 126.431,102.035C126.656,103.882 121.669,110.676 114.736,110.669C107.804,110.662 102.345,104.584 102.306,102.239Z" style="fill:rgb(91,42,17);"/>
                </g>
                <g transform="matrix(0.915586,0,0,0.915586,6.33753,5.89327)">
                    <path d="M102.306,102.239C102.267,99.893 108.975,92.563 114.298,92.445C119.621,92.326 126.205,100.187 126.431,102.035C126.656,103.882 121.669,110.676 114.736,110.669C107.804,110.662 102.345,104.584 102.306,102.239Z" style="fill:rgb(88,39,13);"/>
                </g>
                <g transform="matrix(0.838299,0,0,0.838299,15.2133,13.5493)">
                    <path d="M102.306,102.239C102.267,99.893 108.975,92.563 114.298,92.445C119.621,92.326 126.205,100.187 126.431,102.035C126.656,103.882 121.669,110.676 114.736,110.669C107.804,110.662 102.345,104.584 102.306,102.239Z" style="fill:rgb(83,34,10);"/>
                </g>
                <g transform="matrix(0.767535,0,0,0.767535,23.3995,20.6343)">
                    <path d="M102.306,102.239C102.267,99.893 108.975,92.563 114.298,92.445C119.621,92.326 126.205,100.187 126.431,102.035C126.656,103.882 121.669,110.676 114.736,110.669C107.804,110.662 102.345,104.584 102.306,102.239Z" style="fill:rgb(72,33,14);"/>
                </g>
                <g transform="matrix(0.457008,0,0,0.457008,59.0218,50.8659)">
                    <path d="M102.306,102.239C102.267,99.893 108.975,92.563 114.298,92.445C119.621,92.326 126.205,100.187 126.431,102.035C126.656,103.882 121.669,111.509 114.736,111.502C107.804,111.495 102.345,104.584 102.306,102.239Z" style="fill:black;"/>
                </g>
                <g transform="matrix(1,0,0,1,-2.98945,-3.73732)">
                    <path d="M110.769,100.249C111.604,99.34 112.522,98.54 113.701,98.081L113.956,98.561C112.901,98.899 111.837,99.489 110.769,100.249Z" style="fill:white;"/>
                </g>
            </g>
            <g id="Eye L" transform="matrix(0.794198,0,0,0.794198,466.021,202.083)">
                <path d="M86.559,105.103C99.238,79.802 122.767,83.361 130.729,101.046L131.57,109.495C128.303,114.528 124.839,113.599 121.301,110.381C109.467,116.206 89.321,111.207 86.559,105.103Z" style="fill:rgb(83,58,2);"/>
                <g transform="matrix(1,0,0,1,-3.2626,-2.56472)">
                    <path d="M101.598,102.298C101.559,99.952 108.975,92.563 114.298,92.445C119.621,92.326 127.806,100.326 128.032,102.174C128.257,104.021 121.669,111.923 114.736,111.916C107.804,111.908 101.637,104.643 101.598,102.298Z" style="fill:rgb(70,33,14);"/>
                </g>
                <g transform="matrix(1,0,0,1,-3.2626,-2.56472)">
                    <path d="M102.306,102.239C102.267,99.893 108.975,92.563 114.298,92.445C119.621,92.326 126.205,100.187 126.431,102.035C126.656,103.882 121.669,110.676 114.736,110.669C107.804,110.662 102.345,104.584 102.306,102.239Z" style="fill:rgb(91,42,17);"/>
                </g>
                <g transform="matrix(0.915586,0,0,0.915586,6.33753,5.89327)">
                    <path d="M102.306,102.239C102.267,99.893 108.975,92.563 114.298,92.445C119.621,92.326 126.205,100.187 126.431,102.035C126.656,103.882 121.669,110.676 114.736,110.669C107.804,110.662 102.345,104.584 102.306,102.239Z" style="fill:rgb(88,39,13);"/>
                </g>
                <g transform="matrix(0.838299,0,0,0.838299,15.2133,13.5493)">
                    <path d="M102.306,102.239C102.267,99.893 108.975,92.563 114.298,92.445C119.621,92.326 126.205,100.187 126.431,102.035C126.656,103.882 121.669,110.676 114.736,110.669C107.804,110.662 102.345,104.584 102.306,102.239Z" style="fill:rgb(83,34,10);"/>
                </g>
                <g transform="matrix(0.767535,0,0,0.767535,23.3995,20.6343)">
                    <path d="M102.306,102.239C102.267,99.893 108.975,92.563 114.298,92.445C119.621,92.326 126.205,100.187 126.431,102.035C126.656,103.882 121.669,110.676 114.736,110.669C107.804,110.662 102.345,104.584 102.306,102.239Z" style="fill:rgb(72,33,14);"/>
                </g>
                <g transform="matrix(0.457008,0,0,0.457008,59.0218,50.8659)">
                    <path d="M102.306,102.239C102.267,99.893 108.975,92.563 114.298,92.445C119.621,92.326 126.205,100.187 126.431,102.035C126.656,103.882 121.669,111.509 114.736,111.502C107.804,111.495 102.345,104.584 102.306,102.239Z" style="fill:black;"/>
                </g>
                <g transform="matrix(1,0,0,1,-2.98945,-3.73732)">
                    <path d="M110.769,100.249C111.604,99.34 112.522,98.54 113.701,98.081L113.956,98.561C112.901,98.899 111.837,99.489 110.769,100.249Z" style="fill:white;"/>
                </g>
            </g>
        </g>
    </g>
</svg>
