<?xml version="1.0" standalone="no"?>
<!DOCTYPE svg PUBLIC "-//W3C//DTD SVG 1.1//EN" "http://www.w3.org/Graphics/SVG/1.1/DTD/svg11.dtd">
<svg width="100%" height="100%" viewBox="0 0 900 900" version="1.1" xmlns="http://www.w3.org/2000/svg" xmlns:xlink="http://www.w3.org/1999/xlink" xml:space="preserve" style="fill-rule:evenodd;clip-rule:evenodd;stroke-linecap:round;stroke-linejoin:round;stroke-miterlimit:1.41421;">
    <g id="Layer1" transform="matrix(1,0,0,1,-167.571,-19.2652)">
        <path d="M238.255,109.637C311.182,8.459 439.094,44.433 420.85,145.237C415.506,184.685 418.907,222.64 432.393,254.721C463.696,241.124 490.016,238.269 513.743,243.936C534.545,238.954 541.749,173.743 554.689,174.275C591.005,167.463 604.604,195.949 599.361,212.201C596.397,247.473 579.159,255.248 578.173,262.205C577.256,266.575 596.78,256.912 596.78,256.912C605.496,258.216 611.2,261.491 614.495,266.342C611.426,275.971 615.461,276.218 629.548,277.523C639.49,288.664 615.678,281.755 616.863,286.788C630.982,296.303 627.479,314.682 622.412,312.562C622.412,312.562 624.77,319.617 621.837,321.335C618.904,323.054 607.4,323.157 607.4,323.157C604.603,335.102 597.366,334.426 595.246,324.757C591.45,327.126 586.533,326.691 582.682,323.931C578.844,325.088 577.767,330.812 578.35,339.281C547.31,380.864 518.712,396.353 473.705,396.886C471.513,448.414 472.906,468.324 460.196,466.197C418.965,458.585 388.803,422.56 396.429,414.633C404.054,406.707 426.61,416.181 434.691,414.996C441.679,411.74 435.278,398.654 433.61,399.145C428.032,405.656 359.29,402.837 355.869,400.293C356.14,401.746 331.213,476.543 317.269,469.813C284.994,462.392 258.485,427.558 265.677,419.369C272.869,411.181 307.586,431.839 309.567,430.177C311.11,428.883 326.891,395.767 326.323,393.235C226.295,359.655 197.547,233.684 223.702,147.749C214.508,127.395 221.763,114.716 238.255,109.637ZM334.325,400.258C337.307,393.36 345.122,393.127 341.908,402.107C337.197,419.127 330.604,434.855 322.954,449.857C318.073,460.021 312.087,461.616 305.048,455.035C294.457,449.044 287.063,442.108 281.451,434.645C275.995,427.389 281.995,424.334 288.3,428.263L303.879,440.19C312.38,447.246 317.147,445.28 319.234,436.837L334.325,400.258ZM262.653,99.996C298.989,44.015 396.679,46.314 409.254,109.798C406.262,160.463 404.247,193.744 408.89,216.975C414.839,246.743 419.736,271.942 422.451,278.109C425.166,284.276 431.284,285.367 431.077,276.118C430.948,273.35 431.118,270.541 431.876,267.649C452.405,248.137 502.415,244.542 507.315,257.505C502.778,271.35 475.286,271.14 468.124,263.832C464.288,259.918 454.857,264.524 460.527,268.449C460.527,268.449 467.169,273.102 466.919,275.294C466.669,277.487 455.647,281.022 450.427,287.246C445.208,293.471 452.68,296.582 456.249,293.482C485.684,261.363 565.866,281.446 568.377,314.06C568.765,320.668 568.758,321.524 567.056,332.638C552.904,364.249 509.731,391.884 472.617,383.51C464.215,382.368 460.04,384.72 460.092,390.566C461.745,409.624 461.252,428.624 460.185,447.61C456.868,454.683 452.042,455.89 445.776,451.499C433.449,446.041 422.766,437.763 412.85,428.171C409.553,420.705 411.123,418.092 418.566,421.333C424.113,425.195 429.83,428.095 435.684,430.224C441.925,433.859 445.879,432.216 447.751,425.769L447.195,394.293C446.846,387.854 442.493,386.004 435.049,387.694C263.828,416.83 220.635,277.372 226.442,196.084C226.074,190.067 228.581,185.539 235.999,185.868C284.919,187.638 331.351,180.883 377.693,174.727C387.575,173.415 385.641,161.804 375.63,163.264C333.354,172.497 286.846,175.633 238.697,176.405C233.203,177.157 230.928,175.266 232.188,170.47L232.693,157.69C232.543,152.432 235.982,150.179 242.19,150.247L266.771,149.285C259.492,164.911 270.277,169.221 286.835,169.915C298.743,170.534 307.377,167.593 311.653,159.913C309.909,152.536 305.279,148.632 297.851,148.58C290.84,148.53 290.083,154.182 295.17,155.883C298.478,158.687 297.303,159.671 295.082,160.23C290.132,161.283 285.216,161.06 280.316,160.23C275.012,159.038 273.988,155.402 276.595,149.691C282.294,142.928 290.082,137.176 298.689,131.821C304.484,127.984 303.264,123.668 297.209,124.943L290.414,127.881C286.462,129.927 283.977,129.099 285.522,124.071C283.499,114.743 274.925,105.937 264.56,104.562C261.619,103.405 260.835,101.907 262.653,99.996ZM483.3,367.617C484.085,361.859 496.865,364.931 496.197,368.408C495.172,373.744 482.7,372.028 483.3,367.617ZM472.223,346.97C472.201,340.409 486.528,344.398 485.422,347.761C483.838,352.576 472.237,351.423 472.223,346.97ZM373.308,226.315C373.412,216.308 385.282,216.552 387.051,226.572C388.774,236.329 386.203,287.184 386.242,294.445C386.279,301.453 388.297,301.31 391.466,303.17C394.635,305.03 405.102,308.108 415.301,316.461C425.5,324.815 415.69,329.007 414.198,329.209C412.706,329.411 399.439,329.209 394.827,329.03C390.215,328.852 387.901,327.775 387.988,333.751C388.211,349.156 367.906,345.319 366.59,338.416C348.862,348.301 335.833,331.026 345.232,319.863C354.631,308.7 357.245,308.465 357.398,303.163C357.551,297.861 356.346,279.093 357.305,272.673C358.265,266.254 357.931,259.622 357.547,252.557C357.162,245.492 356.374,234.367 356.374,234.367C353.853,218.254 362.609,217.02 366.202,227.766C369.795,238.512 364.597,264.109 364.526,268.068C364.454,272.027 368.991,297.353 368.99,299.875C368.989,302.398 367.633,307.467 364.416,311.233C361.2,314.999 352.864,322.972 352.864,322.972C349.463,332.206 358.308,337.613 362.925,326.497C365.042,320.585 367.777,319.61 371.372,325.511C371.59,325.776 371.915,325.97 372.012,326.279C374.545,334.319 383.03,331.039 378.157,322.716C374.109,315.802 381.501,313.937 388.025,317.839C401.254,327.872 410.872,317.978 394.857,312.319C394.857,312.319 389.817,310.855 381.961,307.109C374.105,303.363 375.067,282.744 375.929,292.63C376.34,297.35 376.134,282.635 375.417,265.771C374.632,247.312 373.205,236.323 373.308,226.315ZM481.942,330.251C481.92,325.798 491.934,327.56 491.292,331.042C490.649,334.523 481.964,334.703 481.942,330.251ZM516.497,261.559C538.673,235.374 551.308,210.789 559.606,186.931C561.735,180.239 566.229,177.814 574.181,181.624C589.536,189.327 592.164,199.22 589.636,210C587.324,221.044 584.165,231.45 580.368,241.377C574.005,248.903 567.208,255.5 559.942,261.09C552.183,266.906 555.46,271.335 569.773,274.378C576.673,271.915 583.66,269.443 591.001,266.932C596.027,266.762 598.737,268.247 598.061,272.15L597.347,280.785C597.266,283.796 595.925,284.636 593.061,282.854C588.265,282.715 585.544,280.913 583.872,278.269C575.668,278.379 572.79,280.796 577.694,286.586C589.373,293.632 598.989,295.314 607.863,295.07C617.41,299.006 614.036,310.499 609.457,306.625C603.642,304.85 602.137,306.352 604.942,311.131C605.378,315.492 586.732,314.156 583.457,310.2C577.572,310.827 574.337,307.369 572.697,301.453C558.722,279.158 539.099,274.019 518.919,270.572C514.167,269.007 513.824,265.833 516.497,261.559ZM485.392,309.35C485.37,304.897 497.33,304.416 494.415,309.505C490.979,315.501 485.413,313.802 485.392,309.35ZM441.204,274.197C441.182,269.745 454.743,271.507 454.101,274.988C453.458,278.47 441.226,278.65 441.204,274.197ZM562.919,241.194C562.896,237.157 565.957,237.52 567.545,237.538C569.134,237.556 572.814,237.022 572.449,241.302C572.083,245.582 562.943,245.23 562.919,241.194ZM574.205,226.429C573.93,220.528 582.727,221.473 582.464,225.613C582.202,229.753 574.481,232.331 574.205,226.429ZM317.421,137.039C340.426,93.713 388.519,107.236 391.474,129.404C392.855,147.878 380.008,158.698 350.972,160.808C335.01,161.196 317.521,147.633 317.421,137.039ZM333.01,144.788C339.176,144.031 350.165,144.219 352.084,143.453C354.003,142.688 362.725,135.525 366.916,128.988C368.892,125.905 370.155,121.729 371.737,117.612C377.517,119.833 381.702,124.096 384.216,130.499C383.872,139.538 379.1,147.911 351.146,152.791C344.104,154.293 337.982,151.947 333.01,144.788ZM245.073,138.849C243.318,140.266 243.21,141.343 244.746,142.082C249.92,145.301 255.031,144.699 260.12,142.818C289.092,133.383 277.977,119.961 265.182,115.767C264.522,127.852 260.171,137.027 245.073,138.849Z" style="fill:black;stroke-width:0.75px;stroke:black;"/>
    </g>
</svg>
